<?xml version="1.0" standalone="no"?>
<!DOCTYPE svg PUBLIC "-//W3C//DTD SVG 20010904//EN"
 "http://www.w3.org/TR/2001/REC-SVG-20010904/DTD/svg10.dtd">
<svg version="1.0" xmlns="http://www.w3.org/2000/svg"
 width="500.000000pt" height="500.000000pt" viewBox="0 0 500.000000 500.000000"
 preserveAspectRatio="xMidYMid meet">
<metadata>
Created by potrace 1.11, written by Peter Selinger 2001-2013
</metadata>
<g transform="translate(0.000000,500.000000) scale(0.100000,-0.100000)"
fill="#000000" stroke="none">
<path d="M0 2500 l0 -2500 2500 0 2500 0 0 2500 0 2500 -2500 0 -2500 0 0
-2500z m1712 653 c431 -295 788 -536 793 -536 6 0 362 241 793 536 430 296
785 537 787 537 3 0 5 -535 5 -1190 l0 -1190 -360 0 -360 0 -2 545 -3 545
-429 -315 c-235 -173 -430 -315 -431 -315 -1 0 -196 142 -431 315 l-429 315
-3 -545 -2 -545 -360 0 -360 0 0 1190 c0 655 2 1190 5 1190 2 0 357 -241 787
-537z"/>
</g>
</svg>
